Coordinates
version=1
nRows=7
nColumns=40
inDegrees=yes
endheader
time	pelvis_tilt	pelvis_list	pelvis_rotation	pelvis_tx	pelvis_ty	pelvis_tz	hip_flexion_r	hip_adduction_r	hip_rotation_r	knee_angle_r	knee_angle_r_beta	ankle_angle_r	subtalar_angle_r	mtp_angle_r	hip_flexion_l	hip_adduction_l	hip_rotation_l	knee_angle_l	knee_angle_l_beta	ankle_angle_l	subtalar_angle_l	mtp_angle_l	lumbar_extension	lumbar_bending	lumbar_rotation	arm_flex_r	arm_add_r	arm_rot_r	elbow_flex_r	pro_sup_r	wrist_flex_r	wrist_dev_r	arm_flex_l	arm_add_l	arm_rot_l	elbow_flex_l	pro_sup_l	wrist_flex_l	wrist_dev_l
1760624796.37659407	     14.32395268	     -1.69295290	      0.75373699	      0.18973804	      0.86584727	     -0.00163703	     80.00000000	     -7.00000000	      0.00000000	     80.00000000	      1.39626340	      0.00000000	      0.00000000	      0.00000000	     80.00000000	     -7.00000000	      0.00000000	     80.00000000	      1.39626340	      0.00000000	      0.00000000	      0.00000000	    -21.67950926	      0.54377538	      4.94832261	      3.71182899	     -3.05614157	     19.13042499	      0.00000000	      0.46412052	    -70.00000021	    -24.99999983	      7.37451995	     -0.35090518	     -1.27609557	      0.00000000	     27.32629600	    -70.00000021	    -24.99999983
1760624796.38659406	     14.32371341	     -1.69292789	      0.75418222	      0.18976697	      0.86583663	     -0.00164901	     80.00000000	     -7.00000000	      0.00000000	     80.00000000	      1.39626340	      0.00000000	      0.00000000	      0.00000000	     80.00000000	     -7.00000000	      0.00000000	     80.00000000	      1.39626340	      0.00000000	      0.00000000	      0.00000000	    -21.67925048	      0.54333413	      4.94933736	      3.71201864	     -3.05523143	     19.12986503	      0.00000000	      0.46387038	    -70.00000021	    -24.99999983	      7.37591156	     -0.35027122	     -1.27598163	      0.00000000	     27.32628447	    -70.00000021	    -24.99999983
1760624796.39659405	     14.00899885	     -1.61391484	      0.59859781	      0.18932887	      0.86500871	     -0.00157828	     80.00000000	     -7.00000000	      0.00000000	     80.00000000	      1.39626340	      0.00000000	      0.00000000	      0.00000000	     80.00000000	     -7.00000000	      0.00000000	     80.00000000	      1.39626340	      0.00000000	      0.00000000	      0.00000000	    -21.35713458	      0.41501917	      5.33828520	      3.68920884	     -3.15536423	     17.76899766	      0.00000000	      0.00000000	    -70.00000021	    -24.99999983	      7.53732936	     -0.29723611	     -1.19194977	      0.00000000	     27.13031694	    -70.00000021	    -24.99999983
1760624796.40659404	     14.00927819	     -1.61384608	      0.59918259	      0.18936744	      0.86500543	     -0.00157820	     80.00000000	     -7.00000000	      0.00000000	     80.00000000	      1.39626340	      0.00000000	      0.00000000	      0.00000000	     80.00000000	     -7.00000000	      0.00000000	     80.00000000	      1.39626340	      0.00000000	      0.00000000	      0.00000000	    -21.35680643	      0.41491853	      5.33889750	      3.69017009	     -3.15540586	     17.76883494	      0.00000000	      0.00005742	    -70.00000021	    -24.99999983	      7.53768910	     -0.29792429	     -1.19185537	      0.00000000	     27.13030294	    -70.00000021	    -24.99999983
1760624796.41659403	     14.01657770	     -1.61246702	      0.60843487	      0.18941720	      0.86496111	     -0.00157953	     80.00000000	     -7.00000000	      0.00000000	     80.00000000	      1.39626340	      0.00000000	      0.00000000	      0.00000000	     80.00000000	     -7.00000000	      0.00000000	     80.00000000	      1.39626340	      0.00000000	      0.00000000	      0.00000000	    -21.35036863	      0.41333204	      5.34925895	      3.70217011	     -3.16032059	     17.76566058	      0.00000000	      0.00080341	    -70.00000021	    -24.99999983	      7.54198745	     -0.30903277	     -1.19032411	      0.00000000	     27.13002530	    -70.00000021	    -24.99999983
1760624796.42659402	     14.01627749	     -1.61221705	      0.60982880	      0.18950215	      0.86497199	     -0.00161488	     80.00000000	     -7.00000000	      0.00000000	     80.00000000	      1.39626340	      0.00000000	      0.00000000	      0.00000000	     80.00000000	     -7.00000000	      0.00000000	     80.00000000	      1.39626340	      0.00000000	      0.00000000	      0.00000000	    -21.35025440	      0.41316840	      5.35114114	      3.70502273	     -3.16100024	     17.76533967	      0.00000000	      0.00093732	    -70.00000021	    -24.99999983	      7.54310654	     -0.31012475	     -1.19010626	      0.00000000	     27.13001408	    -70.00000021	    -24.99999983
1760624796.43659401	     14.02458753	     -1.60836489	      0.62042480	      0.18956450	      0.86491485	     -0.00167502	     80.00000000	     -7.00000000	      0.00000000	     80.00000000	      1.39626340	      0.00000000	      0.00000000	      0.00000000	     80.00000000	     -7.00000000	      0.00000000	     80.00000000	      1.39626340	      0.00000000	      0.00000000	      0.00000000	    -21.34197212	      0.41296668	      5.36463168	      3.72689196	     -3.17334137	     17.76356765	      0.00000000	      0.00216172	    -70.00000021	    -24.99999983	      7.55224852	     -0.31849983	     -1.18868988	      0.00000000	     27.12986074	    -70.00000021	    -24.99999983
